<?xml version="1.0" encoding="UTF-8"?>
<svg xmlns="http://www.w3.org/2000/svg" width="2000" height="2000" viewBox="0 0 200 200" role="img" aria-label="NVIDIA logo">
  <rect width="200" height="200" fill="#76B900"/>
  <path fill="#FFFFFF" fill-rule="evenodd" d="
    M 84.333 55.000 L 83.000 56.333 L 83.000 60.500 L 84.333 61.833 L 89.500 61.833 L 90.333 62.833 L 95.500 62.833 L 96.333 63.833 L 97.500 63.833 L 98.333 64.833 L 100.500 64.833 L 101.333 65.833 L 102.500 65.833 L 103.333 66.833 L 104.500 66.833 L 106.333 68.833 L 107.500 68.833 L 109.333 70.833 L 110.500 70.833 L 118.000 78.333 L 118.000 79.500 L 108.500 89.000 L 107.333 89.000 L 104.500 92.000 L 103.333 92.000 L 101.500 94.000 L 100.333 94.000 L 99.500 95.000 L 97.333 95.000 L 95.500 97.000 L 92.333 97.000 L 91.500 98.000 L 84.333 98.000 L 83.000 99.333 L 83.000 101.500 L 84.333 102.833 L 90.500 102.833 L 91.333 101.833 L 94.500 101.833 L 95.333 100.833 L 98.500 100.833 L 99.333 99.833 L 100.500 99.833 L 101.333 98.833 L 103.500 98.833 L 104.333 97.833 L 105.500 97.833 L 106.333 96.833 L 107.500 96.833 L 109.333 94.833 L 110.500 94.833 L 112.333 92.833 L 113.500 92.833 L 116.333 89.833 L 117.500 89.833 L 120.333 86.833 L 124.500 86.833 L 126.333 88.833 L 128.500 88.833 L 131.167 91.667 L 132.000 92.167 L 132.000 92.667 L 131.167 93.167 L 129.500 95.000 L 128.333 95.000 L 126.500 97.000 L 125.333 97.000 L 124.500 98.000 L 123.333 98.000 L 122.500 99.000 L 120.333 99.000 L 118.500 101.000 L 116.333 101.000 L 115.500 102.000 L 113.333 102.000 L 112.500 103.000 L 110.333 103.000 L 109.500 104.000 L 107.333 104.000 L 106.500 105.000 L 102.333 105.000 L 101.500 106.000 L 99.333 106.000 L 98.500 107.000 L 89.333 107.000 L 88.500 108.000 L 84.333 108.000 L 83.000 109.333 L 83.000 112.500 L 84.333 113.833 L 137.500 113.833 L 138.833 112.500 L 138.833 56.333 L 137.500 55.000 L 91.333 55.000 L 90.500 54.000 L 86.333 54.000 L 85.500 55.000 Z
    M 76.333 63.000 L 75.500 64.000 L 73.333 64.000 L 72.500 65.000 L 70.333 65.000 L 69.500 66.000 L 68.333 66.000 L 67.500 67.000 L 66.333 67.000 L 65.500 68.000 L 64.333 68.000 L 63.500 69.000 L 62.333 69.000 L 60.500 71.000 L 59.333 71.000 L 58.500 72.000 L 57.333 72.000 L 54.500 75.000 L 53.333 75.000 L 49.000 79.333 L 49.000 80.500 L 50.000 81.333 L 50.000 82.500 L 51.000 83.333 L 51.000 84.500 L 52.000 85.333 L 52.000 86.500 L 53.000 87.333 L 53.000 88.500 L 57.000 92.333 L 57.000 93.500 L 62.333 98.833 L 63.500 98.833 L 66.333 101.833 L 67.500 101.833 L 68.333 102.833 L 69.500 102.833 L 71.333 104.833 L 74.500 104.833 L 75.333 105.833 L 77.500 105.833 L 78.333 106.833 L 80.500 106.833 L 81.833 105.500 L 81.833 104.333 L 79.500 102.000 L 77.333 102.000 L 76.500 101.000 L 74.333 101.000 L 72.500 99.000 L 71.333 99.000 L 70.500 98.000 L 69.333 98.000 L 63.833 92.500 L 63.833 91.333 L 61.833 89.500 L 61.833 88.333 L 59.833 86.500 L 59.833 85.333 L 58.833 84.500 L 58.833 83.333 L 57.833 82.500 L 57.833 79.333 L 64.333 72.833 L 65.500 72.833 L 67.333 70.833 L 68.500 70.833 L 70.333 68.833 L 73.500 68.833 L 74.333 67.833 L 75.500 67.833 L 76.333 66.833 L 80.500 66.833 L 81.833 65.500 L 81.833 64.333 L 80.500 63.000 Z
    M 106.833 77.333 L 104.500 75.000 L 103.333 75.000 L 99.500 71.000 L 98.333 71.000 L 97.500 70.000 L 96.333 70.000 L 95.500 69.000 L 93.333 69.000 L 92.500 68.000 L 90.333 68.000 L 89.500 67.000 L 84.333 67.000 L 83.000 68.333 L 83.000 70.500 L 84.333 71.833 L 89.500 71.833 L 90.333 72.833 L 92.500 72.833 L 93.333 73.833 L 94.500 73.833 L 95.333 74.833 L 96.500 74.833 L 100.000 78.333 L 100.000 79.500 L 94.500 85.000 L 92.333 85.000 L 90.833 83.500 L 90.833 82.333 L 86.500 78.000 L 83.333 78.000 L 83.000 78.333 L 83.000 91.500 L 81.500 93.000 L 80.333 93.000 L 78.500 91.000 L 77.333 91.000 L 74.833 88.500 L 74.833 87.333 L 72.833 85.500 L 72.833 83.333 L 71.833 82.500 L 71.833 81.333 L 75.333 77.833 L 76.500 77.833 L 77.333 76.833 L 80.500 76.833 L 81.833 75.500 L 81.833 74.333 L 80.500 73.000 L 77.333 73.000 L 76.500 74.000 L 75.333 74.000 L 74.500 75.000 L 72.333 75.000 L 71.500 76.000 L 70.333 76.000 L 67.500 79.000 L 66.333 79.000 L 65.000 80.333 L 65.000 82.500 L 66.000 83.333 L 66.000 84.500 L 67.000 85.333 L 67.000 86.500 L 69.000 88.333 L 69.000 89.500 L 70.333 90.833 L 71.500 90.833 L 75.333 94.833 L 76.500 94.833 L 77.333 95.833 L 78.500 95.833 L 79.333 96.833 L 80.500 96.833 L 83.333 93.833 L 88.500 93.833 L 89.333 92.833 L 92.500 92.833 L 93.333 91.833 L 94.500 91.833 L 95.333 90.833 L 96.500 90.833 L 98.333 88.833 L 99.500 88.833 L 106.833 81.500 Z
    M 42.333 125.000 L 41.000 126.333 L 41.000 145.500 L 43.333 147.833 L 45.500 147.833 L 46.833 146.500 L 46.833 131.333 L 48.333 129.833 L 52.500 129.833 L 53.333 130.833 L 54.500 130.833 L 57.000 133.333 L 57.000 145.500 L 59.333 147.833 L 61.500 147.833 L 62.833 146.500 L 62.833 131.333 L 61.833 130.500 L 61.833 129.333 L 59.500 127.000 L 58.333 127.000 L 57.500 126.000 L 55.333 126.000 L 54.500 125.000 Z
    M 66.333 125.000 L 65.000 126.333 L 65.000 127.500 L 66.000 128.333 L 66.000 130.500 L 67.000 131.333 L 67.000 134.500 L 68.000 135.333 L 68.000 136.500 L 69.000 137.333 L 69.000 140.500 L 70.000 141.333 L 70.000 142.500 L 71.000 143.333 L 71.000 145.500 L 73.333 147.833 L 74.500 147.833 L 75.333 146.833 L 79.500 146.833 L 81.833 144.500 L 81.833 142.333 L 82.833 141.500 L 82.833 138.333 L 83.833 137.500 L 83.833 136.333 L 84.833 135.500 L 84.833 132.333 L 85.833 131.500 L 85.833 130.333 L 86.833 129.500 L 86.833 126.333 L 85.500 125.000 L 82.333 125.000 L 81.000 126.333 L 81.000 129.500 L 80.000 130.333 L 80.000 132.500 L 79.000 133.333 L 79.000 136.500 L 78.000 137.333 L 78.000 138.500 L 76.500 140.000 L 75.333 140.000 L 74.833 139.500 L 74.833 137.333 L 73.833 136.500 L 73.833 135.333 L 72.833 134.500 L 72.833 130.333 L 71.833 129.500 L 71.833 128.333 L 70.833 127.500 L 70.833 126.333 L 69.500 125.000 Z
    M 92.333 125.000 L 91.000 126.333 L 91.000 145.500 L 93.333 147.833 L 94.500 147.833 L 96.833 145.500 L 96.833 126.333 L 95.500 125.000 Z
    M 102.333 125.000 L 101.000 126.333 L 101.000 145.500 L 102.333 146.833 L 117.500 146.833 L 118.333 145.833 L 119.500 145.833 L 120.833 144.500 L 120.833 143.333 L 121.833 142.500 L 121.833 140.333 L 122.833 139.500 L 122.833 133.333 L 121.833 132.500 L 121.833 131.333 L 120.833 130.500 L 120.833 129.333 L 118.500 127.000 L 117.333 127.000 L 116.500 126.000 L 114.333 126.000 L 113.500 125.000 Z
    M 128.333 125.000 L 126.000 127.333 L 126.000 145.500 L 127.333 146.833 L 130.500 146.833 L 131.833 145.500 L 131.833 126.333 L 130.500 125.000 Z
    M 145.333 125.000 L 143.000 127.333 L 143.000 129.500 L 142.000 130.333 L 142.000 131.500 L 141.000 132.333 L 141.000 133.500 L 140.000 134.333 L 140.000 136.500 L 139.000 137.333 L 139.000 139.500 L 138.000 140.333 L 138.000 141.500 L 137.000 142.333 L 137.000 144.500 L 136.000 145.167 L 136.000 145.667 L 136.667 146.000 L 137.333 146.833 L 140.500 146.833 L 144.333 142.833 L 151.500 142.833 L 155.333 146.833 L 158.500 146.833 L 159.833 145.500 L 159.833 144.333 L 158.833 143.500 L 158.833 141.333 L 157.833 140.500 L 157.833 139.333 L 156.833 138.500 L 156.833 136.333 L 155.833 135.500 L 155.833 134.333 L 154.833 133.500 L 154.833 131.333 L 153.833 130.500 L 153.833 129.333 L 152.833 128.500 L 152.833 126.333 L 151.500 125.000 Z
    M 108.333 129.833 L 112.500 129.833 L 113.333 130.833 L 114.500 130.833 L 116.000 132.333 L 116.000 133.500 L 117.000 134.333 L 117.000 139.500 L 113.500 143.000 L 108.333 143.000 L 106.833 141.500 L 106.833 131.333 Z
    M 147.333 131.833 L 148.500 131.833 L 150.000 133.333 L 150.000 134.500 L 151.000 135.333 L 151.000 138.500 L 149.500 140.000 L 146.333 140.000 L 144.833 138.500 L 144.833 135.333 L 145.833 134.500 L 145.833 133.333 Z
  "/>
</svg>
