<svg width="2873" height="1114" xmlns="http://www.w3.org/2000/svg" xmlns:xlink="http://www.w3.org/1999/xlink" xml:space="preserve" overflow="hidden"><g transform="translate(-770 -797)"><g><path d="M1539.5 1027.5C1539.5 996.02 1564.8 970.5 1596 970.5 1627.2 970.5 1652.5 996.02 1652.5 1027.5 1652.5 1058.98 1627.2 1084.5 1596 1084.5 1564.8 1084.5 1539.5 1058.98 1539.5 1027.5Z" stroke="#404040" stroke-width="3.4375" stroke-linecap="butt" stroke-linejoin="miter" stroke-miterlimit="8" stroke-opacity="1" fill="#404040" fill-rule="evenodd" fill-opacity="1"/><path d="M1539.5 1275.5C1539.5 1244.02 1564.8 1218.5 1596 1218.5 1627.2 1218.5 1652.5 1244.02 1652.5 1275.5 1652.5 1306.98 1627.2 1332.5 1596 1332.5 1564.8 1332.5 1539.5 1306.98 1539.5 1275.5Z" stroke="#404040" stroke-width="3.4375" stroke-linecap="butt" stroke-linejoin="miter" stroke-miterlimit="8" stroke-opacity="1" fill="#F7C6AE" fill-rule="evenodd" fill-opacity="1"/><text fill="#000000" fill-opacity="1" font-family="Times New Roman,Times New Roman_MSFontService,sans-serif" font-style="normal" font-variant="normal" font-weight="400" font-stretch="normal" font-size="73" text-anchor="start" direction="ltr" writing-mode="lr-tb" unicode-bidi="normal" text-decoration="none" transform="matrix(1 0 0 1 1562.25 1294)">T</text><text fill="#000000" fill-opacity="1" font-family="Times New Roman,Times New Roman_MSFontService,sans-serif" font-style="normal" font-variant="normal" font-weight="400" font-stretch="normal" font-size="49" text-anchor="start" direction="ltr" writing-mode="lr-tb" unicode-bidi="normal" text-decoration="none" transform="matrix(1 0 0 1 1606.93 1311)">5</text><path d="M818.5 868.398C818.5 856.856 827.857 847.5 839.398 847.5L1722.6 847.5C1734.14 847.5 1743.5 856.856 1743.5 868.398L1743.5 1346.6C1743.5 1358.14 1734.14 1367.5 1722.6 1367.5L839.398 1367.5C827.857 1367.5 818.5 1358.14 818.5 1346.6Z" stroke="#042433" stroke-width="6.875" stroke-linecap="butt" stroke-linejoin="miter" stroke-miterlimit="8" stroke-dasharray="27.5 20.625 6.875 20.625" stroke-opacity="1" fill="#156082" fill-rule="evenodd" fill-opacity="0.0509804"/><path d="M1379.5 1275.5C1379.5 1244.02 1404.8 1218.5 1436 1218.5 1467.2 1218.5 1492.5 1244.02 1492.5 1275.5 1492.5 1306.98 1467.2 1332.5 1436 1332.5 1404.8 1332.5 1379.5 1306.98 1379.5 1275.5Z" stroke="#404040" stroke-width="3.4375" stroke-linecap="butt" stroke-linejoin="miter" stroke-miterlimit="8" stroke-opacity="1" fill="#83CBEB" fill-rule="evenodd" fill-opacity="1"/><text fill="#000000" fill-opacity="1" font-family="Times New Roman,Times New Roman_MSFontService,sans-serif" font-style="normal" font-variant="normal" font-weight="400" font-stretch="normal" font-size="73" text-anchor="start" direction="ltr" writing-mode="lr-tb" unicode-bidi="normal" text-decoration="none" transform="matrix(1 0 0 1 1402.24 1294)">T</text><text fill="#000000" fill-opacity="1" font-family="Times New Roman,Times New Roman_MSFontService,sans-serif" font-style="normal" font-variant="normal" font-weight="400" font-stretch="normal" font-size="49" text-anchor="start" direction="ltr" writing-mode="lr-tb" unicode-bidi="normal" text-decoration="none" transform="matrix(1 0 0 1 1446.93 1311)">4</text><path d="M1212.5 1275.5C1212.5 1244.02 1238.02 1218.5 1269.5 1218.5 1300.98 1218.5 1326.5 1244.02 1326.5 1275.5 1326.5 1306.98 1300.98 1332.5 1269.5 1332.5 1238.02 1332.5 1212.5 1306.98 1212.5 1275.5Z" stroke="#404040" stroke-width="3.4375" stroke-linecap="butt" stroke-linejoin="miter" stroke-miterlimit="8" stroke-opacity="1" fill="#D7FC79" fill-rule="evenodd" fill-opacity="1"/><text fill="#000000" fill-opacity="1" font-family="Times New Roman,Times New Roman_MSFontService,sans-serif" font-style="normal" font-variant="normal" font-weight="400" font-stretch="normal" font-size="73" text-anchor="start" direction="ltr" writing-mode="lr-tb" unicode-bidi="normal" text-decoration="none" transform="matrix(1 0 0 1 1235.95 1294)">T</text><text fill="#000000" fill-opacity="1" font-family="Times New Roman,Times New Roman_MSFontService,sans-serif" font-style="normal" font-variant="normal" font-weight="400" font-stretch="normal" font-size="49" text-anchor="start" direction="ltr" writing-mode="lr-tb" unicode-bidi="normal" text-decoration="none" transform="matrix(1 0 0 1 1280.64 1311)">3</text><path d="M1052.5 1275.5C1052.5 1244.02 1078.02 1218.5 1109.5 1218.5 1140.98 1218.5 1166.5 1244.02 1166.5 1275.5 1166.5 1306.98 1140.98 1332.5 1109.5 1332.5 1078.02 1332.5 1052.5 1306.98 1052.5 1275.5Z" stroke="#404040" stroke-width="3.4375" stroke-linecap="butt" stroke-linejoin="miter" stroke-miterlimit="8" stroke-opacity="1" fill="#FFD679" fill-rule="evenodd" fill-opacity="1"/><text fill="#000000" fill-opacity="1" font-family="Times New Roman,Times New Roman_MSFontService,sans-serif" font-style="normal" font-variant="normal" font-weight="400" font-stretch="normal" font-size="73" text-anchor="start" direction="ltr" writing-mode="lr-tb" unicode-bidi="normal" text-decoration="none" transform="matrix(1 0 0 1 1075.94 1294)">T</text><text fill="#000000" fill-opacity="1" font-family="Times New Roman,Times New Roman_MSFontService,sans-serif" font-style="normal" font-variant="normal" font-weight="400" font-stretch="normal" font-size="49" text-anchor="start" direction="ltr" writing-mode="lr-tb" unicode-bidi="normal" text-decoration="none" transform="matrix(1 0 0 1 1120.63 1311)">2</text><path d="M772 1494.33C772 1477.03 786.029 1463 803.334 1463L3462.67 1463C3479.97 1463 3494 1477.03 3494 1494.33L3494 1619.67C3494 1636.97 3479.97 1651 3462.67 1651L803.334 1651C786.029 1651 772 1636.97 772 1619.67Z" fill="#889488" fill-rule="evenodd" fill-opacity="1"/><text fill="#000000" fill-opacity="1" font-family="Times New Roman,Times New Roman_MSFontService,sans-serif" font-style="normal" font-variant="normal" font-weight="400" font-stretch="normal" font-size="92" text-anchor="start" direction="ltr" writing-mode="lr-tb" unicode-bidi="normal" text-decoration="none" transform="matrix(1 0 0 1 1792.77 1591)">Qwen3</text><text fill="#000000" fill-opacity="1" font-family="Times New Roman,Times New Roman_MSFontService,sans-serif" font-style="normal" font-variant="normal" font-weight="400" font-stretch="normal" font-size="92" text-anchor="start" direction="ltr" writing-mode="lr-tb" unicode-bidi="normal" text-decoration="none" transform="matrix(1 0 0 1 2058.03 1591)">-</text><text fill="#000000" fill-opacity="1" font-family="Times New Roman,Times New Roman_MSFontService,sans-serif" font-style="normal" font-variant="normal" font-weight="400" font-stretch="normal" font-size="92" text-anchor="start" direction="ltr" writing-mode="lr-tb" unicode-bidi="normal" text-decoration="none" transform="matrix(1 0 0 1 2088.39 1591)">0.6B</text><text fill="#000000" fill-opacity="1" font-family="Times New Roman,Times New Roman_MSFontService,sans-serif" font-style="normal" font-variant="normal" font-weight="400" font-stretch="normal" font-size="92" text-anchor="start" direction="ltr" writing-mode="lr-tb" unicode-bidi="normal" text-decoration="none" transform="matrix(1 0 0 1 2264.28 1591)">-</text><text fill="#000000" fill-opacity="1" font-family="Times New Roman,Times New Roman_MSFontService,sans-serif" font-style="normal" font-variant="normal" font-weight="400" font-stretch="normal" font-size="92" text-anchor="start" direction="ltr" writing-mode="lr-tb" unicode-bidi="normal" text-decoration="none" transform="matrix(1 0 0 1 2294.64 1591)">Base</text><path d="M3.4375-1.10568e-05 3.43779 89.2833-3.43721 89.2834-3.4375 1.10568e-05ZM13.7503 84.7 0.000360892 112.2-13.7497 84.7Z" fill="#262626" fill-rule="nonzero" fill-opacity="0.74902" transform="matrix(1 0 0 -1 1072.5 1779.7)"/><path d="M1014.5 1852C1014.5 1820.8 1040.02 1795.5 1071.5 1795.5 1102.98 1795.5 1128.5 1820.8 1128.5 1852 1128.5 1883.2 1102.98 1908.5 1071.5 1908.5 1040.02 1908.5 1014.5 1883.2 1014.5 1852Z" stroke="#404040" stroke-width="3.4375" stroke-linecap="butt" stroke-linejoin="miter" stroke-miterlimit="8" stroke-opacity="1" fill="#D9D9D9" fill-rule="evenodd" fill-opacity="1"/><path d="M1190.5 1852C1190.5 1820.8 1216.02 1795.5 1247.5 1795.5 1278.98 1795.5 1304.5 1820.8 1304.5 1852 1304.5 1883.2 1278.98 1908.5 1247.5 1908.5 1216.02 1908.5 1190.5 1883.2 1190.5 1852Z" stroke="#404040" stroke-width="3.4375" stroke-linecap="butt" stroke-linejoin="miter" stroke-miterlimit="8" stroke-opacity="1" fill="#D9D9D9" fill-rule="evenodd" fill-opacity="1"/><path d="M3.4375-1.10568e-05 3.43779 89.2833-3.43721 89.2834-3.4375 1.10568e-05ZM13.7503 84.7 0.000360892 112.2-13.7497 84.7Z" fill="#262626" fill-rule="nonzero" fill-opacity="0.74902" transform="matrix(1 0 0 -1 1253.5 1779.7)"/><path d="M1366.5 1852C1366.5 1820.8 1392.02 1795.5 1423.5 1795.5 1454.98 1795.5 1480.5 1820.8 1480.5 1852 1480.5 1883.2 1454.98 1908.5 1423.5 1908.5 1392.02 1908.5 1366.5 1883.2 1366.5 1852Z" stroke="#404040" stroke-width="3.4375" stroke-linecap="butt" stroke-linejoin="miter" stroke-miterlimit="8" stroke-opacity="1" fill="#D9D9D9" fill-rule="evenodd" fill-opacity="1"/><path d="M3.4375-1.10568e-05 3.43779 89.2833-3.43721 89.2834-3.4375 1.10568e-05ZM13.7503 84.7 0.000360892 112.2-13.7497 84.7Z" fill="#262626" fill-rule="nonzero" fill-opacity="0.74902" transform="matrix(1 0 0 -1 1430.5 1779.7)"/><path d="M1542.5 1852C1542.5 1820.8 1567.8 1795.5 1599 1795.5 1630.2 1795.5 1655.5 1820.8 1655.5 1852 1655.5 1883.2 1630.2 1908.5 1599 1908.5 1567.8 1908.5 1542.5 1883.2 1542.5 1852Z" stroke="#404040" stroke-width="3.4375" stroke-linecap="butt" stroke-linejoin="miter" stroke-miterlimit="8" stroke-opacity="1" fill="#D9D9D9" fill-rule="evenodd" fill-opacity="1"/><path d="M3.4375-1.10568e-05 3.43779 89.2833-3.43721 89.2834-3.4375 1.10568e-05ZM13.7503 84.7 0.000360892 112.2-13.7497 84.7Z" fill="#262626" fill-rule="nonzero" fill-opacity="0.74902" transform="matrix(1 0 0 -1 1600.5 1779.7)"/><path d="M1718.5 1852C1718.5 1820.8 1743.8 1795.5 1775 1795.5 1806.2 1795.5 1831.5 1820.8 1831.5 1852 1831.5 1883.2 1806.2 1908.5 1775 1908.5 1743.8 1908.5 1718.5 1883.2 1718.5 1852Z" stroke="#404040" stroke-width="3.4375" stroke-linecap="butt" stroke-linejoin="miter" stroke-miterlimit="8" stroke-opacity="1" fill="#D9D9D9" fill-rule="evenodd" fill-opacity="1"/><path d="M3.4375-1.10568e-05 3.43779 89.2833-3.43721 89.2834-3.4375 1.10568e-05ZM13.7503 84.7 0.000360892 112.2-13.7497 84.7Z" fill="#262626" fill-rule="nonzero" fill-opacity="0.74902" transform="matrix(1 0 0 -1 1778.5 1779.7)"/><path d="M1894.5 1852C1894.5 1820.8 1919.8 1795.5 1951 1795.5 1982.2 1795.5 2007.5 1820.8 2007.5 1852 2007.5 1883.2 1982.2 1908.5 1951 1908.5 1919.8 1908.5 1894.5 1883.2 1894.5 1852Z" stroke="#404040" stroke-width="3.4375" stroke-linecap="butt" stroke-linejoin="miter" stroke-miterlimit="8" stroke-opacity="1" fill="#C00000" fill-rule="evenodd" fill-opacity="1"/><path d="M3.4375-1.10568e-05 3.43779 89.2833-3.43721 89.2834-3.4375 1.10568e-05ZM13.7503 84.7 0.000360892 112.2-13.7497 84.7Z" fill="#262626" fill-rule="nonzero" fill-opacity="0.74902" transform="matrix(1 0 0 -1 1948.5 1779.7)"/><path d="M1945.44 1455.78 1945.14 1365.43 1952.01 1365.41 1952.31 1455.76ZM1934.84 1370.04 1948.5 1342.5 1962.34 1369.95Z" fill="#262626" fill-rule="nonzero" fill-opacity="0.74902"/><path d="M3.4375-1.09525e-05 3.43779 90.3512-3.43721 90.3512-3.4375 1.09525e-05ZM13.7503 85.7678 0.000360892 113.268-13.7497 85.7679Z" fill="#262626" fill-rule="nonzero" fill-opacity="0.74902" transform="matrix(1 0 0 -1 2122.5 1455.77)"/><path d="M3.4375-1.10568e-05 3.43779 89.2833-3.43721 89.2834-3.4375 1.10568e-05ZM13.7503 84.7 0.000360892 112.2-13.7497 84.7Z" fill="#262626" fill-rule="nonzero" fill-opacity="0.74902" transform="matrix(1 0 0 -1 2297.5 1455.7)"/><path d="M3.4375-1.10568e-05 3.43779 89.2833-3.43721 89.2834-3.4375 1.10568e-05ZM13.7503 84.7 0.000360892 112.2-13.7497 84.7Z" fill="#262626" fill-rule="nonzero" fill-opacity="0.74902" transform="matrix(1 0 0 -1 2471.5 1455.7)"/><path d="M3.4375-1.10853e-05 3.43779 88.9939-3.43721 88.9939-3.4375 1.10853e-05ZM13.7503 84.4105 0.000360892 111.911-13.7497 84.4106Z" fill="#262626" fill-rule="nonzero" fill-opacity="0.74902" transform="matrix(1 0 0 -1 2645.5 1455.41)"/><path d="M3.4375-1.10853e-05 3.43779 88.9939-3.43721 88.9939-3.4375 1.10853e-05ZM13.7503 84.4105 0.000360892 111.911-13.7497 84.4106Z" fill="#262626" fill-rule="nonzero" fill-opacity="0.74902" transform="matrix(1 0 0 -1 2820.5 1455.41)"/><path d="M3.4375-1.09525e-05 3.43779 90.3512-3.43721 90.3512-3.4375 1.09525e-05ZM13.7503 85.7678 0.000360892 113.268-13.7497 85.7679Z" fill="#262626" fill-rule="nonzero" fill-opacity="0.74902" transform="matrix(1 0 0 -1 2994.5 1455.77)"/><path d="M3.4375-1.09525e-05 3.43779 90.3512-3.43721 90.3512-3.4375 1.09525e-05ZM13.7503 85.7678 0.000360892 113.268-13.7497 85.7679Z" fill="#262626" fill-rule="nonzero" fill-opacity="0.74902" transform="matrix(1 0 0 -1 3169.5 1455.77)"/><path d="M3.4375-1.10854e-05 3.43779 88.9935-3.43721 88.9936-3.4375 1.10854e-05ZM13.7503 84.4102 0.000360892 111.91-13.7497 84.4102Z" fill="#262626" fill-rule="nonzero" fill-opacity="0.74902" transform="matrix(1 0 0 -1 3343.5 1455.41)"/><text fill="#000000" fill-opacity="1" font-family="Times New Roman,Times New Roman_MSFontService,sans-serif" font-style="normal" font-variant="normal" font-weight="400" font-stretch="normal" font-size="73" text-anchor="start" direction="ltr" writing-mode="lr-tb" unicode-bidi="normal" text-decoration="none" transform="matrix(1 0 0 1 3462.9 1294)">CB1</text><path d="M1894.5 1269.5C1894.5 1238.02 1919.8 1212.5 1951 1212.5 1982.2 1212.5 2007.5 1238.02 2007.5 1269.5 2007.5 1300.98 1982.2 1326.5 1951 1326.5 1919.8 1326.5 1894.5 1300.98 1894.5 1269.5Z" stroke="#404040" stroke-width="3.4375" stroke-linecap="butt" stroke-linejoin="miter" stroke-miterlimit="8" stroke-opacity="1" fill="#FF7E79" fill-rule="evenodd" fill-opacity="1"/><text fill="#000000" fill-opacity="1" font-family="Times New Roman,Times New Roman_MSFontService,sans-serif" font-style="normal" font-variant="normal" font-weight="400" font-stretch="normal" font-size="83" text-anchor="start" direction="ltr" writing-mode="lr-tb" unicode-bidi="normal" text-decoration="none" transform="matrix(1 0 0 1 1929.83 1299)">1</text><path d="M2068.5 1269.5C2068.5 1238.02 2094.02 1212.5 2125.5 1212.5 2156.98 1212.5 2182.5 1238.02 2182.5 1269.5 2182.5 1300.98 2156.98 1326.5 2125.5 1326.5 2094.02 1326.5 2068.5 1300.98 2068.5 1269.5Z" stroke="#404040" stroke-width="3.4375" stroke-linecap="butt" stroke-linejoin="miter" stroke-miterlimit="8" stroke-opacity="1" fill="#FFD579" fill-rule="evenodd" fill-opacity="1"/><text fill="#000000" fill-opacity="1" font-family="Times New Roman,Times New Roman_MSFontService,sans-serif" font-style="normal" font-variant="normal" font-weight="400" font-stretch="normal" font-size="83" text-anchor="start" direction="ltr" writing-mode="lr-tb" unicode-bidi="normal" text-decoration="none" transform="matrix(1 0 0 1 2104.21 1299)">2</text><path d="M2242.5 1269.5C2242.5 1238.02 2268.02 1212.5 2299.5 1212.5 2330.98 1212.5 2356.5 1238.02 2356.5 1269.5 2356.5 1300.98 2330.98 1326.5 2299.5 1326.5 2268.02 1326.5 2242.5 1300.98 2242.5 1269.5Z" stroke="#404040" stroke-width="3.4375" stroke-linecap="butt" stroke-linejoin="miter" stroke-miterlimit="8" stroke-opacity="1" fill="#D7FB79" fill-rule="evenodd" fill-opacity="1"/><text fill="#000000" fill-opacity="1" font-family="Times New Roman,Times New Roman_MSFontService,sans-serif" font-style="normal" font-variant="normal" font-weight="400" font-stretch="normal" font-size="83" text-anchor="start" direction="ltr" writing-mode="lr-tb" unicode-bidi="normal" text-decoration="none" transform="matrix(1 0 0 1 2278.59 1299)">3</text><path d="M2417.5 1269.5C2417.5 1238.02 2442.8 1212.5 2474 1212.5 2505.2 1212.5 2530.5 1238.02 2530.5 1269.5 2530.5 1300.98 2505.2 1326.5 2474 1326.5 2442.8 1326.5 2417.5 1300.98 2417.5 1269.5Z" stroke="#404040" stroke-width="3.4375" stroke-linecap="butt" stroke-linejoin="miter" stroke-miterlimit="8" stroke-opacity="1" fill="#83CBEB" fill-rule="evenodd" fill-opacity="1"/><text fill="#000000" fill-opacity="1" font-family="Times New Roman,Times New Roman_MSFontService,sans-serif" font-style="normal" font-variant="normal" font-weight="400" font-stretch="normal" font-size="83" text-anchor="start" direction="ltr" writing-mode="lr-tb" unicode-bidi="normal" text-decoration="none" transform="matrix(1 0 0 1 2452.97 1299)">4</text><path d="M2591.5 1269.5C2591.5 1238.02 2617.02 1212.5 2648.5 1212.5 2679.98 1212.5 2705.5 1238.02 2705.5 1269.5 2705.5 1300.98 2679.98 1326.5 2648.5 1326.5 2617.02 1326.5 2591.5 1300.98 2591.5 1269.5Z" stroke="#404040" stroke-width="3.4375" stroke-linecap="butt" stroke-linejoin="miter" stroke-miterlimit="8" stroke-opacity="1" fill="#F6C6AD" fill-rule="evenodd" fill-opacity="1"/><text fill="#000000" fill-opacity="1" font-family="Times New Roman,Times New Roman_MSFontService,sans-serif" font-style="normal" font-variant="normal" font-weight="400" font-stretch="normal" font-size="83" text-anchor="start" direction="ltr" writing-mode="lr-tb" unicode-bidi="normal" text-decoration="none" transform="matrix(1 0 0 1 2627.35 1299)">5</text><path d="M2765.5 1269.5C2765.5 1238.02 2791.02 1212.5 2822.5 1212.5 2853.98 1212.5 2879.5 1238.02 2879.5 1269.5 2879.5 1300.98 2853.98 1326.5 2822.5 1326.5 2791.02 1326.5 2765.5 1300.98 2765.5 1269.5Z" stroke="#404040" stroke-width="3.4375" stroke-linecap="butt" stroke-linejoin="miter" stroke-miterlimit="8" stroke-opacity="1" fill="#404040" fill-rule="evenodd" fill-opacity="1"/><path d="M2940.5 1269.5C2940.5 1238.02 2966.02 1212.5 2997.5 1212.5 3028.98 1212.5 3054.5 1238.02 3054.5 1269.5 3054.5 1300.98 3028.98 1326.5 2997.5 1326.5 2966.02 1326.5 2940.5 1300.98 2940.5 1269.5Z" stroke="#404040" stroke-width="3.4375" stroke-linecap="butt" stroke-linejoin="miter" stroke-miterlimit="8" stroke-opacity="1" fill="#889488" fill-rule="evenodd" fill-opacity="1"/><path d="M3114.5 1269.5C3114.5 1238.02 3140.02 1212.5 3171.5 1212.5 3202.98 1212.5 3228.5 1238.02 3228.5 1269.5 3228.5 1300.98 3202.98 1326.5 3171.5 1326.5 3140.02 1326.5 3114.5 1300.98 3114.5 1269.5Z" stroke="#404040" stroke-width="3.4375" stroke-linecap="butt" stroke-linejoin="miter" stroke-miterlimit="8" stroke-opacity="1" fill="#889488" fill-rule="evenodd" fill-opacity="1"/><path d="M3289.5 1269.5C3289.5 1238.02 3314.8 1212.5 3346 1212.5 3377.2 1212.5 3402.5 1238.02 3402.5 1269.5 3402.5 1300.98 3377.2 1326.5 3346 1326.5 3314.8 1326.5 3289.5 1300.98 3289.5 1269.5Z" stroke="#404040" stroke-width="3.4375" stroke-linecap="butt" stroke-linejoin="miter" stroke-miterlimit="8" stroke-opacity="1" fill="#889488" fill-rule="evenodd" fill-opacity="1"/><text fill="#000000" fill-opacity="1" font-family="Times New Roman,Times New Roman_MSFontService,sans-serif" font-style="normal" font-variant="normal" font-weight="400" font-stretch="normal" font-size="73" text-anchor="start" direction="ltr" writing-mode="lr-tb" unicode-bidi="normal" text-decoration="none" transform="matrix(1 0 0 1 3462.9 1166)">CB2</text><path d="M1894.5 1137.5C1894.5 1106.02 1919.8 1080.5 1951 1080.5 1982.2 1080.5 2007.5 1106.02 2007.5 1137.5 2007.5 1168.98 1982.2 1194.5 1951 1194.5 1919.8 1194.5 1894.5 1168.98 1894.5 1137.5Z" stroke="#404040" stroke-width="3.4375" stroke-linecap="butt" stroke-linejoin="miter" stroke-miterlimit="8" stroke-opacity="1" fill="#889488" fill-rule="evenodd" fill-opacity="1"/><path d="M2068.5 1137.5C2068.5 1106.02 2094.02 1080.5 2125.5 1080.5 2156.98 1080.5 2182.5 1106.02 2182.5 1137.5 2182.5 1168.98 2156.98 1194.5 2125.5 1194.5 2094.02 1194.5 2068.5 1168.98 2068.5 1137.5Z" stroke="#404040" stroke-width="3.4375" stroke-linecap="butt" stroke-linejoin="miter" stroke-miterlimit="8" stroke-opacity="1" fill="#FF7E79" fill-rule="evenodd" fill-opacity="1"/><text fill="#000000" fill-opacity="1" font-family="Times New Roman,Times New Roman_MSFontService,sans-serif" font-style="normal" font-variant="normal" font-weight="400" font-stretch="normal" font-size="83" text-anchor="start" direction="ltr" writing-mode="lr-tb" unicode-bidi="normal" text-decoration="none" transform="matrix(1 0 0 1 2104.21 1168)">1</text><path d="M2242.5 1137.5C2242.5 1106.02 2268.02 1080.5 2299.5 1080.5 2330.98 1080.5 2356.5 1106.02 2356.5 1137.5 2356.5 1168.98 2330.98 1194.5 2299.5 1194.5 2268.02 1194.5 2242.5 1168.98 2242.5 1137.5Z" stroke="#404040" stroke-width="3.4375" stroke-linecap="butt" stroke-linejoin="miter" stroke-miterlimit="8" stroke-opacity="1" fill="#FFD579" fill-rule="evenodd" fill-opacity="1"/><text fill="#000000" fill-opacity="1" font-family="Times New Roman,Times New Roman_MSFontService,sans-serif" font-style="normal" font-variant="normal" font-weight="400" font-stretch="normal" font-size="83" text-anchor="start" direction="ltr" writing-mode="lr-tb" unicode-bidi="normal" text-decoration="none" transform="matrix(1 0 0 1 2278.59 1168)">2</text><path d="M2417.5 1137.5C2417.5 1106.02 2442.8 1080.5 2474 1080.5 2505.2 1080.5 2530.5 1106.02 2530.5 1137.5 2530.5 1168.98 2505.2 1194.5 2474 1194.5 2442.8 1194.5 2417.5 1168.98 2417.5 1137.5Z" stroke="#404040" stroke-width="3.4375" stroke-linecap="butt" stroke-linejoin="miter" stroke-miterlimit="8" stroke-opacity="1" fill="#D7FB79" fill-rule="evenodd" fill-opacity="1"/><text fill="#000000" fill-opacity="1" font-family="Times New Roman,Times New Roman_MSFontService,sans-serif" font-style="normal" font-variant="normal" font-weight="400" font-stretch="normal" font-size="83" text-anchor="start" direction="ltr" writing-mode="lr-tb" unicode-bidi="normal" text-decoration="none" transform="matrix(1 0 0 1 2452.97 1168)">3</text><path d="M2591.5 1137.5C2591.5 1106.02 2617.02 1080.5 2648.5 1080.5 2679.98 1080.5 2705.5 1106.02 2705.5 1137.5 2705.5 1168.98 2679.98 1194.5 2648.5 1194.5 2617.02 1194.5 2591.5 1168.98 2591.5 1137.5Z" stroke="#404040" stroke-width="3.4375" stroke-linecap="butt" stroke-linejoin="miter" stroke-miterlimit="8" stroke-opacity="1" fill="#83CBEB" fill-rule="evenodd" fill-opacity="1"/><text fill="#000000" fill-opacity="1" font-family="Times New Roman,Times New Roman_MSFontService,sans-serif" font-style="normal" font-variant="normal" font-weight="400" font-stretch="normal" font-size="83" text-anchor="start" direction="ltr" writing-mode="lr-tb" unicode-bidi="normal" text-decoration="none" transform="matrix(1 0 0 1 2627.35 1168)">4</text><path d="M2765.5 1137.5C2765.5 1106.02 2791.02 1080.5 2822.5 1080.5 2853.98 1080.5 2879.5 1106.02 2879.5 1137.5 2879.5 1168.98 2853.98 1194.5 2822.5 1194.5 2791.02 1194.5 2765.5 1168.98 2765.5 1137.5Z" stroke="#404040" stroke-width="3.4375" stroke-linecap="butt" stroke-linejoin="miter" stroke-miterlimit="8" stroke-opacity="1" fill="#F7C6AD" fill-rule="evenodd" fill-opacity="1"/><text fill="#000000" fill-opacity="1" font-family="Times New Roman,Times New Roman_MSFontService,sans-serif" font-style="normal" font-variant="normal" font-weight="400" font-stretch="normal" font-size="83" text-anchor="start" direction="ltr" writing-mode="lr-tb" unicode-bidi="normal" text-decoration="none" transform="matrix(1 0 0 1 2801.73 1168)">5</text><path d="M2940.5 1137.5C2940.5 1106.02 2966.02 1080.5 2997.5 1080.5 3028.98 1080.5 3054.5 1106.02 3054.5 1137.5 3054.5 1168.98 3028.98 1194.5 2997.5 1194.5 2966.02 1194.5 2940.5 1168.98 2940.5 1137.5Z" stroke="#404040" stroke-width="3.4375" stroke-linecap="butt" stroke-linejoin="miter" stroke-miterlimit="8" stroke-opacity="1" fill="#404040" fill-rule="evenodd" fill-opacity="1"/><path d="M3114.5 1137.5C3114.5 1106.02 3140.02 1080.5 3171.5 1080.5 3202.98 1080.5 3228.5 1106.02 3228.5 1137.5 3228.5 1168.98 3202.98 1194.5 3171.5 1194.5 3140.02 1194.5 3114.5 1168.98 3114.5 1137.5Z" stroke="#404040" stroke-width="3.4375" stroke-linecap="butt" stroke-linejoin="miter" stroke-miterlimit="8" stroke-opacity="1" fill="#889488" fill-rule="evenodd" fill-opacity="1"/><path d="M3289.5 1137.5C3289.5 1106.02 3314.8 1080.5 3346 1080.5 3377.2 1080.5 3402.5 1106.02 3402.5 1137.5 3402.5 1168.98 3377.2 1194.5 3346 1194.5 3314.8 1194.5 3289.5 1168.98 3289.5 1137.5Z" stroke="#404040" stroke-width="3.4375" stroke-linecap="butt" stroke-linejoin="miter" stroke-miterlimit="8" stroke-opacity="1" fill="#889488" fill-rule="evenodd" fill-opacity="1"/><text fill="#000000" fill-opacity="1" font-family="Times New Roman,Times New Roman_MSFontService,sans-serif" font-style="normal" font-variant="normal" font-weight="400" font-stretch="normal" font-size="73" text-anchor="start" direction="ltr" writing-mode="lr-tb" unicode-bidi="normal" text-decoration="none" transform="matrix(1 0 0 1 3462.9 1031)">CB3</text><path d="M1894.5 1006.5C1894.5 975.02 1919.8 949.5 1951 949.5 1982.2 949.5 2007.5 975.02 2007.5 1006.5 2007.5 1037.98 1982.2 1063.5 1951 1063.5 1919.8 1063.5 1894.5 1037.98 1894.5 1006.5Z" stroke="#404040" stroke-width="3.4375" stroke-linecap="butt" stroke-linejoin="miter" stroke-miterlimit="8" stroke-opacity="1" fill="#889488" fill-rule="evenodd" fill-opacity="1"/><path d="M2068.5 1006.5C2068.5 975.02 2094.02 949.5 2125.5 949.5 2156.98 949.5 2182.5 975.02 2182.5 1006.5 2182.5 1037.98 2156.98 1063.5 2125.5 1063.5 2094.02 1063.5 2068.5 1037.98 2068.5 1006.5Z" stroke="#404040" stroke-width="3.4375" stroke-linecap="butt" stroke-linejoin="miter" stroke-miterlimit="8" stroke-opacity="1" fill="#889488" fill-rule="evenodd" fill-opacity="1"/><path d="M2242.5 1006.5C2242.5 975.02 2268.02 949.5 2299.5 949.5 2330.98 949.5 2356.5 975.02 2356.5 1006.5 2356.5 1037.98 2330.98 1063.5 2299.5 1063.5 2268.02 1063.5 2242.5 1037.98 2242.5 1006.5Z" stroke="#404040" stroke-width="3.4375" stroke-linecap="butt" stroke-linejoin="miter" stroke-miterlimit="8" stroke-opacity="1" fill="#FF7E79" fill-rule="evenodd" fill-opacity="1"/><text fill="#000000" fill-opacity="1" font-family="Times New Roman,Times New Roman_MSFontService,sans-serif" font-style="normal" font-variant="normal" font-weight="400" font-stretch="normal" font-size="83" text-anchor="start" direction="ltr" writing-mode="lr-tb" unicode-bidi="normal" text-decoration="none" transform="matrix(1 0 0 1 2278.59 1036)">1</text><path d="M2417.5 1006.5C2417.5 975.02 2442.8 949.5 2474 949.5 2505.2 949.5 2530.5 975.02 2530.5 1006.5 2530.5 1037.98 2505.2 1063.5 2474 1063.5 2442.8 1063.5 2417.5 1037.98 2417.5 1006.5Z" stroke="#404040" stroke-width="3.4375" stroke-linecap="butt" stroke-linejoin="miter" stroke-miterlimit="8" stroke-opacity="1" fill="#FFD579" fill-rule="evenodd" fill-opacity="1"/><text fill="#000000" fill-opacity="1" font-family="Times New Roman,Times New Roman_MSFontService,sans-serif" font-style="normal" font-variant="normal" font-weight="400" font-stretch="normal" font-size="83" text-anchor="start" direction="ltr" writing-mode="lr-tb" unicode-bidi="normal" text-decoration="none" transform="matrix(1 0 0 1 2452.97 1036)">2</text><path d="M2591.5 1006.5C2591.5 975.02 2617.02 949.5 2648.5 949.5 2679.98 949.5 2705.5 975.02 2705.5 1006.5 2705.5 1037.98 2679.98 1063.5 2648.5 1063.5 2617.02 1063.5 2591.5 1037.98 2591.5 1006.5Z" stroke="#404040" stroke-width="3.4375" stroke-linecap="butt" stroke-linejoin="miter" stroke-miterlimit="8" stroke-opacity="1" fill="#D7FB79" fill-rule="evenodd" fill-opacity="1"/><text fill="#000000" fill-opacity="1" font-family="Times New Roman,Times New Roman_MSFontService,sans-serif" font-style="normal" font-variant="normal" font-weight="400" font-stretch="normal" font-size="83" text-anchor="start" direction="ltr" writing-mode="lr-tb" unicode-bidi="normal" text-decoration="none" transform="matrix(1 0 0 1 2627.35 1036)">3</text><path d="M2765.5 1006.5C2765.5 975.02 2791.02 949.5 2822.5 949.5 2853.98 949.5 2879.5 975.02 2879.5 1006.5 2879.5 1037.98 2853.98 1063.5 2822.5 1063.5 2791.02 1063.5 2765.5 1037.98 2765.5 1006.5Z" stroke="#404040" stroke-width="3.4375" stroke-linecap="butt" stroke-linejoin="miter" stroke-miterlimit="8" stroke-opacity="1" fill="#83CCEB" fill-rule="evenodd" fill-opacity="1"/><text fill="#000000" fill-opacity="1" font-family="Times New Roman,Times New Roman_MSFontService,sans-serif" font-style="normal" font-variant="normal" font-weight="400" font-stretch="normal" font-size="83" text-anchor="start" direction="ltr" writing-mode="lr-tb" unicode-bidi="normal" text-decoration="none" transform="matrix(1 0 0 1 2801.73 1036)">4</text><path d="M2940.5 1006.5C2940.5 975.02 2966.02 949.5 2997.5 949.5 3028.98 949.5 3054.5 975.02 3054.5 1006.5 3054.5 1037.98 3028.98 1063.5 2997.5 1063.5 2966.02 1063.5 2940.5 1037.98 2940.5 1006.5Z" stroke="#404040" stroke-width="3.4375" stroke-linecap="butt" stroke-linejoin="miter" stroke-miterlimit="8" stroke-opacity="1" fill="#F7C6AD" fill-rule="evenodd" fill-opacity="1"/><text fill="#000000" fill-opacity="1" font-family="Times New Roman,Times New Roman_MSFontService,sans-serif" font-style="normal" font-variant="normal" font-weight="400" font-stretch="normal" font-size="83" text-anchor="start" direction="ltr" writing-mode="lr-tb" unicode-bidi="normal" text-decoration="none" transform="matrix(1 0 0 1 2976.11 1036)">5</text><path d="M3114.5 1006.5C3114.5 975.02 3140.02 949.5 3171.5 949.5 3202.98 949.5 3228.5 975.02 3228.5 1006.5 3228.5 1037.98 3202.98 1063.5 3171.5 1063.5 3140.02 1063.5 3114.5 1037.98 3114.5 1006.5Z" stroke="#404040" stroke-width="3.4375" stroke-linecap="butt" stroke-linejoin="miter" stroke-miterlimit="8" stroke-opacity="1" fill="#404040" fill-rule="evenodd" fill-opacity="1"/><path d="M3289.5 1006.5C3289.5 975.02 3314.8 949.5 3346 949.5 3377.2 949.5 3402.5 975.02 3402.5 1006.5 3402.5 1037.98 3377.2 1063.5 3346 1063.5 3314.8 1063.5 3289.5 1037.98 3289.5 1006.5Z" stroke="#404040" stroke-width="3.4375" stroke-linecap="butt" stroke-linejoin="miter" stroke-miterlimit="8" stroke-opacity="1" fill="#889488" fill-rule="evenodd" fill-opacity="1"/><text fill="#000000" fill-opacity="1" font-family="Times New Roman,Times New Roman_MSFontService,sans-serif" font-style="normal" font-variant="normal" font-weight="400" font-stretch="normal" font-size="73" text-anchor="start" direction="ltr" writing-mode="lr-tb" unicode-bidi="normal" text-decoration="none" transform="matrix(1 0 0 1 3462.9 903)">CB4</text><path d="M1894.5 873.5C1894.5 842.02 1919.8 816.5 1951 816.5 1982.2 816.5 2007.5 842.02 2007.5 873.5 2007.5 904.98 1982.2 930.5 1951 930.5 1919.8 930.5 1894.5 904.98 1894.5 873.5Z" stroke="#404040" stroke-width="3.4375" stroke-linecap="butt" stroke-linejoin="miter" stroke-miterlimit="8" stroke-opacity="1" fill="#889488" fill-rule="evenodd" fill-opacity="1"/><path d="M2068.5 873.5C2068.5 842.02 2094.02 816.5 2125.5 816.5 2156.98 816.5 2182.5 842.02 2182.5 873.5 2182.5 904.98 2156.98 930.5 2125.5 930.5 2094.02 930.5 2068.5 904.98 2068.5 873.5Z" stroke="#404040" stroke-width="3.4375" stroke-linecap="butt" stroke-linejoin="miter" stroke-miterlimit="8" stroke-opacity="1" fill="#889488" fill-rule="evenodd" fill-opacity="1"/><path d="M2242.5 873.5C2242.5 842.02 2268.02 816.5 2299.5 816.5 2330.98 816.5 2356.5 842.02 2356.5 873.5 2356.5 904.98 2330.98 930.5 2299.5 930.5 2268.02 930.5 2242.5 904.98 2242.5 873.5Z" stroke="#404040" stroke-width="3.4375" stroke-linecap="butt" stroke-linejoin="miter" stroke-miterlimit="8" stroke-opacity="1" fill="#889488" fill-rule="evenodd" fill-opacity="1"/><path d="M2417.5 873.5C2417.5 842.02 2442.8 816.5 2474 816.5 2505.2 816.5 2530.5 842.02 2530.5 873.5 2530.5 904.98 2505.2 930.5 2474 930.5 2442.8 930.5 2417.5 904.98 2417.5 873.5Z" stroke="#404040" stroke-width="3.4375" stroke-linecap="butt" stroke-linejoin="miter" stroke-miterlimit="8" stroke-opacity="1" fill="#FF7E79" fill-rule="evenodd" fill-opacity="1"/><text fill="#000000" fill-opacity="1" font-family="Times New Roman,Times New Roman_MSFontService,sans-serif" font-style="normal" font-variant="normal" font-weight="400" font-stretch="normal" font-size="83" text-anchor="start" direction="ltr" writing-mode="lr-tb" unicode-bidi="normal" text-decoration="none" transform="matrix(1 0 0 1 2452.97 904)">1</text><path d="M2591.5 873.5C2591.5 842.02 2617.02 816.5 2648.5 816.5 2679.98 816.5 2705.5 842.02 2705.5 873.5 2705.5 904.98 2679.98 930.5 2648.5 930.5 2617.02 930.5 2591.5 904.98 2591.5 873.5Z" stroke="#404040" stroke-width="3.4375" stroke-linecap="butt" stroke-linejoin="miter" stroke-miterlimit="8" stroke-opacity="1" fill="#FFD579" fill-rule="evenodd" fill-opacity="1"/><text fill="#000000" fill-opacity="1" font-family="Times New Roman,Times New Roman_MSFontService,sans-serif" font-style="normal" font-variant="normal" font-weight="400" font-stretch="normal" font-size="83" text-anchor="start" direction="ltr" writing-mode="lr-tb" unicode-bidi="normal" text-decoration="none" transform="matrix(1 0 0 1 2627.35 904)">2</text><path d="M2765.5 873.5C2765.5 842.02 2791.02 816.5 2822.5 816.5 2853.98 816.5 2879.5 842.02 2879.5 873.5 2879.5 904.98 2853.98 930.5 2822.5 930.5 2791.02 930.5 2765.5 904.98 2765.5 873.5Z" stroke="#404040" stroke-width="3.4375" stroke-linecap="butt" stroke-linejoin="miter" stroke-miterlimit="8" stroke-opacity="1" fill="#D7FB79" fill-rule="evenodd" fill-opacity="1"/><text fill="#000000" fill-opacity="1" font-family="Times New Roman,Times New Roman_MSFontService,sans-serif" font-style="normal" font-variant="normal" font-weight="400" font-stretch="normal" font-size="83" text-anchor="start" direction="ltr" writing-mode="lr-tb" unicode-bidi="normal" text-decoration="none" transform="matrix(1 0 0 1 2801.73 904)">3</text><path d="M2940.5 873.5C2940.5 842.02 2966.02 816.5 2997.5 816.5 3028.98 816.5 3054.5 842.02 3054.5 873.5 3054.5 904.98 3028.98 930.5 2997.5 930.5 2966.02 930.5 2940.5 904.98 2940.5 873.5Z" stroke="#404040" stroke-width="3.4375" stroke-linecap="butt" stroke-linejoin="miter" stroke-miterlimit="8" stroke-opacity="1" fill="#83CCEB" fill-rule="evenodd" fill-opacity="1"/><text fill="#000000" fill-opacity="1" font-family="Times New Roman,Times New Roman_MSFontService,sans-serif" font-style="normal" font-variant="normal" font-weight="400" font-stretch="normal" font-size="83" text-anchor="start" direction="ltr" writing-mode="lr-tb" unicode-bidi="normal" text-decoration="none" transform="matrix(1 0 0 1 2976.11 904)">4</text><path d="M3114.5 873.5C3114.5 842.02 3140.02 816.5 3171.5 816.5 3202.98 816.5 3228.5 842.02 3228.5 873.5 3228.5 904.98 3202.98 930.5 3171.5 930.5 3140.02 930.5 3114.5 904.98 3114.5 873.5Z" stroke="#404040" stroke-width="3.4375" stroke-linecap="butt" stroke-linejoin="miter" stroke-miterlimit="8" stroke-opacity="1" fill="#F7C6AD" fill-rule="evenodd" fill-opacity="1"/><text fill="#000000" fill-opacity="1" font-family="Times New Roman,Times New Roman_MSFontService,sans-serif" font-style="normal" font-variant="normal" font-weight="400" font-stretch="normal" font-size="83" text-anchor="start" direction="ltr" writing-mode="lr-tb" unicode-bidi="normal" text-decoration="none" transform="matrix(1 0 0 1 3150.49 904)">5</text><path d="M3289.5 873.5C3289.5 842.02 3314.8 816.5 3346 816.5 3377.2 816.5 3402.5 842.02 3402.5 873.5 3402.5 904.98 3377.2 930.5 3346 930.5 3314.8 930.5 3289.5 904.98 3289.5 873.5Z" stroke="#404040" stroke-width="3.4375" stroke-linecap="butt" stroke-linejoin="miter" stroke-miterlimit="8" stroke-opacity="1" fill="#404040" fill-rule="evenodd" fill-opacity="1"/><path d="M3.4375-1.10568e-05 3.43779 89.2833-3.43721 89.2834-3.4375 1.10568e-05ZM13.7503 84.7 0.000360892 112.2-13.7497 84.7Z" fill="#262626" fill-rule="nonzero" fill-opacity="0.74902" transform="matrix(1 0 0 -1 896.5 1779.7)"/><path d="M838.5 1852C838.5 1820.8 864.02 1795.5 895.5 1795.5 926.98 1795.5 952.5 1820.8 952.5 1852 952.5 1883.2 926.98 1908.5 895.5 1908.5 864.02 1908.5 838.5 1883.2 838.5 1852Z" stroke="#404040" stroke-width="3.4375" stroke-linecap="butt" stroke-linejoin="miter" stroke-miterlimit="8" stroke-opacity="1" fill="#D9D9D9" fill-rule="evenodd" fill-opacity="1"/><text fill="#000000" fill-opacity="1" font-family="Times New Roman,Times New Roman_MSFontService,sans-serif" font-style="normal" font-variant="normal" font-weight="400" font-stretch="normal" font-size="64" text-anchor="start" direction="ltr" writing-mode="lr-tb" unicode-bidi="normal" text-decoration="none" transform="matrix(1 0 0 1 897.081 923)">Text / Speaker / Empty / EOS:</text><text fill="#000000" fill-opacity="1" font-family="Times New Roman,Times New Roman_MSFontService,sans-serif" font-style="normal" font-variant="normal" font-weight="400" font-stretch="normal" font-size="64" text-anchor="start" direction="ltr" writing-mode="lr-tb" unicode-bidi="normal" text-decoration="none" transform="matrix(1 0 0 1 897.081 1169)">Speech Token:</text><path d="M892.5 1275.5C892.5 1244.02 918.02 1218.5 949.5 1218.5 980.98 1218.5 1006.5 1244.02 1006.5 1275.5 1006.5 1306.98 980.98 1332.5 949.5 1332.5 918.02 1332.5 892.5 1306.98 892.5 1275.5Z" stroke="#404040" stroke-width="3.4375" stroke-linecap="butt" stroke-linejoin="miter" stroke-miterlimit="8" stroke-opacity="1" fill="#FF7E79" fill-rule="evenodd" fill-opacity="1"/><text fill="#000000" fill-opacity="1" font-family="Times New Roman,Times New Roman_MSFontService,sans-serif" font-style="normal" font-variant="normal" font-weight="400" font-stretch="normal" font-size="73" text-anchor="start" direction="ltr" writing-mode="lr-tb" unicode-bidi="normal" text-decoration="none" transform="matrix(1 0 0 1 915.939 1294)">T</text><text fill="#000000" fill-opacity="1" font-family="Times New Roman,Times New Roman_MSFontService,sans-serif" font-style="normal" font-variant="normal" font-weight="400" font-stretch="normal" font-size="49" text-anchor="start" direction="ltr" writing-mode="lr-tb" unicode-bidi="normal" text-decoration="none" transform="matrix(1 0 0 1 960.627 1311)">1</text><path d="M1323.5 1027.5C1323.5 996.02 1349.02 970.5 1380.5 970.5 1411.98 970.5 1437.5 996.02 1437.5 1027.5 1437.5 1058.98 1411.98 1084.5 1380.5 1084.5 1349.02 1084.5 1323.5 1058.98 1323.5 1027.5Z" stroke="#404040" stroke-width="3.4375" stroke-linecap="butt" stroke-linejoin="miter" stroke-miterlimit="8" stroke-opacity="1" fill="#889488" fill-rule="evenodd" fill-opacity="1"/><path d="M1108.5 1027.5C1108.5 996.02 1134.02 970.5 1165.5 970.5 1196.98 970.5 1222.5 996.02 1222.5 1027.5 1222.5 1058.98 1196.98 1084.5 1165.5 1084.5 1134.02 1084.5 1108.5 1058.98 1108.5 1027.5Z" stroke="#404040" stroke-width="3.4375" stroke-linecap="butt" stroke-linejoin="miter" stroke-miterlimit="8" stroke-opacity="1" fill="#C00000" fill-rule="evenodd" fill-opacity="1"/><path d="M892.5 1027.5C892.5 996.02 918.02 970.5 949.5 970.5 980.98 970.5 1006.5 996.02 1006.5 1027.5 1006.5 1058.98 980.98 1084.5 949.5 1084.5 918.02 1084.5 892.5 1058.98 892.5 1027.5Z" stroke="#404040" stroke-width="3.4375" stroke-linecap="butt" stroke-linejoin="miter" stroke-miterlimit="8" stroke-opacity="1" fill="#D9D9D9" fill-rule="evenodd" fill-opacity="1"/></g></g></svg>